# xmcd CD database file
#
# Track frame offsets:
#	182
#	33310
#	59605
#	89215
#	102527
#	137652
#	158560
#	175330
#	209945
#	228520
#	239785
#	265540
#	277815
#
# Disc length: 4000 seconds
#
# Revision: 2
# Processed by: cddbd v1.5.2PL0 Copyright (c) Steve Scherf et al.
# Submitted via: CDex 1.51
#
DISCID=c40f9e0d
DTITLE=Various Artist - Tempo Jazz Edition Vol 2
DYEAR=1991
DGENRE=Jazz
TTITLE0=The Harper Brothers - Remembrance
TTITLE1=Steve Williamson - Mandy´s Mood
TTITLE2=Hank Roberts - Comin´ Home
TTITLE3=Wynton Marsalis - The Seductress
TTITLE4=Courtney Pine - In A Mellow Tone
TTITLE5=Cassandra Wilson - Jump World
TTITLE6=Universal Congress Of - Freight Train
TTITLE7=Robin Eubanks - Karma
TTITLE8=Michel Camilo - On The Other Hand
TTITLE9=Mark Whitfield - Namu
TTITLE10=Karen Mantler - I´m Not Such A Bad Guy
TTITLE11=James Morrisson - Snappy Doo
TTITLE12=The Dirty Dozen Brass Band - It´s All Over Now
EXTD=YEAR: 1991
EXTT0=
EXTT1=
EXTT2=
EXTT3=
EXTT4=
EXTT5=
EXTT6=
EXTT7=
EXTT8=
EXTT9=
EXTT10=
EXTT11=
EXTT12=
PLAYORDER=
